<mxfile host="65bd71144e">
    <diagram name="P치gina-1" id="2nRwC4AiCb8U7kTkDGeM">
        <mxGraphModel dx="942" dy="692" grid="1" gridSize="10" guides="1" tooltips="1" connect="1" arrows="1" fold="1" page="1" pageScale="1" pageWidth="850" pageHeight="1100" math="0" shadow="0">
            <root>
                <mxCell id="0"/>
                <mxCell id="1" parent="0"/>
                <mxCell id="4xxRc0FwJ2M22CgaKZjk-6" style="edgeStyle=orthogonalEdgeStyle;rounded=0;orthogonalLoop=1;jettySize=auto;html=1;entryX=0.058;entryY=1.033;entryDx=0;entryDy=0;entryPerimeter=0;exitX=0.5;exitY=0;exitDx=0;exitDy=0;" parent="1" source="4xxRc0FwJ2M22CgaKZjk-1" target="4xxRc0FwJ2M22CgaKZjk-15" edge="1">
                    <mxGeometry relative="1" as="geometry">
                        <mxPoint x="240" y="500" as="sourcePoint"/>
                        <mxPoint x="310" y="350" as="targetPoint"/>
                        <Array as="points">
                            <mxPoint x="100" y="440"/>
                            <mxPoint x="367" y="440"/>
                        </Array>
                    </mxGeometry>
                </mxCell>
                <mxCell id="4xxRc0FwJ2M22CgaKZjk-1" value="Lectura de Texto" style="rounded=1;whiteSpace=wrap;html=1;" parent="1" vertex="1">
                    <mxGeometry x="40" y="590" width="120" height="60" as="geometry"/>
                </mxCell>
                <mxCell id="4xxRc0FwJ2M22CgaKZjk-18" style="edgeStyle=orthogonalEdgeStyle;rounded=0;orthogonalLoop=1;jettySize=auto;html=1;exitX=0.5;exitY=0;exitDx=0;exitDy=0;entryX=0.25;entryY=1;entryDx=0;entryDy=0;" parent="1" source="4xxRc0FwJ2M22CgaKZjk-2" target="4xxRc0FwJ2M22CgaKZjk-15" edge="1">
                    <mxGeometry relative="1" as="geometry">
                        <Array as="points">
                            <mxPoint x="260" y="520"/>
                            <mxPoint x="390" y="520"/>
                        </Array>
                    </mxGeometry>
                </mxCell>
                <mxCell id="4xxRc0FwJ2M22CgaKZjk-2" value="Identificaci칩n de palabras clave" style="rounded=1;whiteSpace=wrap;html=1;" parent="1" vertex="1">
                    <mxGeometry x="200" y="590" width="120" height="60" as="geometry"/>
                </mxCell>
                <mxCell id="4xxRc0FwJ2M22CgaKZjk-22" style="edgeStyle=orthogonalEdgeStyle;rounded=0;orthogonalLoop=1;jettySize=auto;html=1;exitX=0.5;exitY=0;exitDx=0;exitDy=0;entryX=0.75;entryY=1;entryDx=0;entryDy=0;" parent="1" source="4xxRc0FwJ2M22CgaKZjk-3" target="4xxRc0FwJ2M22CgaKZjk-15" edge="1">
                    <mxGeometry relative="1" as="geometry">
                        <mxPoint x="460" y="410" as="targetPoint"/>
                        <Array as="points">
                            <mxPoint x="580" y="520"/>
                            <mxPoint x="450" y="520"/>
                        </Array>
                    </mxGeometry>
                </mxCell>
                <mxCell id="4xxRc0FwJ2M22CgaKZjk-3" value="Extracci칩n del Contexto" style="rounded=1;whiteSpace=wrap;html=1;" parent="1" vertex="1">
                    <mxGeometry x="520" y="590" width="120" height="60" as="geometry"/>
                </mxCell>
                <mxCell id="4xxRc0FwJ2M22CgaKZjk-23" style="edgeStyle=orthogonalEdgeStyle;rounded=0;orthogonalLoop=1;jettySize=auto;html=1;exitX=0.5;exitY=0;exitDx=0;exitDy=0;entryX=1;entryY=1;entryDx=0;entryDy=0;" parent="1" source="4xxRc0FwJ2M22CgaKZjk-4" target="4xxRc0FwJ2M22CgaKZjk-15" edge="1">
                    <mxGeometry relative="1" as="geometry">
                        <Array as="points">
                            <mxPoint x="740" y="440"/>
                            <mxPoint x="480" y="440"/>
                        </Array>
                    </mxGeometry>
                </mxCell>
                <mxCell id="4xxRc0FwJ2M22CgaKZjk-4" value="Ordenamiento y visualizaci칩n del resultado" style="rounded=1;whiteSpace=wrap;html=1;" parent="1" vertex="1">
                    <mxGeometry x="680" y="590" width="120" height="60" as="geometry"/>
                </mxCell>
                <mxCell id="4xxRc0FwJ2M22CgaKZjk-5" value="" style="endArrow=classic;html=1;rounded=0;entryX=0;entryY=0.5;entryDx=0;entryDy=0;" parent="1" target="4xxRc0FwJ2M22CgaKZjk-15" edge="1">
                    <mxGeometry width="50" height="50" relative="1" as="geometry">
                        <mxPoint x="280" y="350" as="sourcePoint"/>
                        <mxPoint x="250" y="360" as="targetPoint"/>
                    </mxGeometry>
                </mxCell>
                <mxCell id="4xxRc0FwJ2M22CgaKZjk-10" value="In&amp;nbsp;&lt;div&gt;(Text)&lt;/div&gt;" style="text;html=1;align=center;verticalAlign=middle;whiteSpace=wrap;rounded=0;" parent="1" vertex="1">
                    <mxGeometry x="290" y="320" width="60" height="30" as="geometry"/>
                </mxCell>
                <mxCell id="4xxRc0FwJ2M22CgaKZjk-11" value="String List" style="text;html=1;align=center;verticalAlign=middle;whiteSpace=wrap;rounded=0;" parent="1" vertex="1">
                    <mxGeometry x="190" y="410" width="60" height="30" as="geometry"/>
                </mxCell>
                <mxCell id="4xxRc0FwJ2M22CgaKZjk-13" value="String List" style="text;html=1;align=center;verticalAlign=middle;whiteSpace=wrap;rounded=0;" parent="1" vertex="1">
                    <mxGeometry x="480" y="490" width="60" height="30" as="geometry"/>
                </mxCell>
                <mxCell id="4xxRc0FwJ2M22CgaKZjk-14" value="Out&lt;div&gt;(Text)&lt;/div&gt;" style="text;html=1;align=center;verticalAlign=middle;whiteSpace=wrap;rounded=0;" parent="1" vertex="1">
                    <mxGeometry x="490" y="320" width="60" height="30" as="geometry"/>
                </mxCell>
                <mxCell id="4xxRc0FwJ2M22CgaKZjk-25" style="edgeStyle=orthogonalEdgeStyle;rounded=0;orthogonalLoop=1;jettySize=auto;html=1;exitX=1;exitY=0.5;exitDx=0;exitDy=0;" parent="1" source="4xxRc0FwJ2M22CgaKZjk-15" edge="1">
                    <mxGeometry relative="1" as="geometry">
                        <mxPoint x="560" y="350" as="targetPoint"/>
                    </mxGeometry>
                </mxCell>
                <mxCell id="4xxRc0FwJ2M22CgaKZjk-15" value="Sistema&lt;div&gt;(Main)&lt;/div&gt;" style="rounded=1;whiteSpace=wrap;html=1;" parent="1" vertex="1">
                    <mxGeometry x="360" y="320" width="120" height="60" as="geometry"/>
                </mxCell>
                <mxCell id="4xxRc0FwJ2M22CgaKZjk-12" value="String List" style="text;html=1;align=center;verticalAlign=middle;whiteSpace=wrap;rounded=0;" parent="1" vertex="1">
                    <mxGeometry x="290" y="490" width="60" height="30" as="geometry"/>
                </mxCell>
                <mxCell id="4xxRc0FwJ2M22CgaKZjk-24" value="String List" style="text;html=1;align=center;verticalAlign=middle;whiteSpace=wrap;rounded=0;" parent="1" vertex="1">
                    <mxGeometry x="590" y="410" width="60" height="30" as="geometry"/>
                </mxCell>
                <mxCell id="2" style="edgeStyle=orthogonalEdgeStyle;rounded=0;orthogonalLoop=1;jettySize=auto;html=1;entryX=0.058;entryY=1.033;entryDx=0;entryDy=0;entryPerimeter=0;exitX=0.5;exitY=0;exitDx=0;exitDy=0;" parent="1" source="3" target="16" edge="1">
                    <mxGeometry relative="1" as="geometry">
                        <mxPoint x="250" y="1055" as="sourcePoint"/>
                        <mxPoint x="320" y="905" as="targetPoint"/>
                        <Array as="points">
                            <mxPoint x="110" y="995"/>
                            <mxPoint x="377" y="995"/>
                        </Array>
                    </mxGeometry>
                </mxCell>
                <mxCell id="3" value="Input" style="rounded=1;whiteSpace=wrap;html=1;" parent="1" vertex="1">
                    <mxGeometry x="50" y="1145" width="120" height="60" as="geometry"/>
                </mxCell>
                <mxCell id="4" style="edgeStyle=orthogonalEdgeStyle;rounded=0;orthogonalLoop=1;jettySize=auto;html=1;exitX=0.5;exitY=0;exitDx=0;exitDy=0;entryX=0.25;entryY=1;entryDx=0;entryDy=0;" parent="1" source="5" target="16" edge="1">
                    <mxGeometry relative="1" as="geometry">
                        <Array as="points">
                            <mxPoint x="270" y="1075"/>
                            <mxPoint x="400" y="1075"/>
                        </Array>
                    </mxGeometry>
                </mxCell>
                <mxCell id="5" value="CircularShift" style="rounded=1;whiteSpace=wrap;html=1;" parent="1" vertex="1">
                    <mxGeometry x="210" y="1145" width="120" height="60" as="geometry"/>
                </mxCell>
                <mxCell id="6" style="edgeStyle=orthogonalEdgeStyle;rounded=0;orthogonalLoop=1;jettySize=auto;html=1;exitX=0.5;exitY=0;exitDx=0;exitDy=0;entryX=0.75;entryY=1;entryDx=0;entryDy=0;" parent="1" source="7" target="16" edge="1">
                    <mxGeometry relative="1" as="geometry">
                        <mxPoint x="470" y="965" as="targetPoint"/>
                        <Array as="points">
                            <mxPoint x="590" y="1075"/>
                            <mxPoint x="460" y="1075"/>
                        </Array>
                    </mxGeometry>
                </mxCell>
                <mxCell id="7" value="Alphabetizer" style="rounded=1;whiteSpace=wrap;html=1;" parent="1" vertex="1">
                    <mxGeometry x="530" y="1145" width="120" height="60" as="geometry"/>
                </mxCell>
                <mxCell id="8" style="edgeStyle=orthogonalEdgeStyle;rounded=0;orthogonalLoop=1;jettySize=auto;html=1;exitX=0.5;exitY=0;exitDx=0;exitDy=0;entryX=1;entryY=1;entryDx=0;entryDy=0;" parent="1" source="9" target="16" edge="1">
                    <mxGeometry relative="1" as="geometry">
                        <Array as="points">
                            <mxPoint x="750" y="995"/>
                            <mxPoint x="490" y="995"/>
                        </Array>
                    </mxGeometry>
                </mxCell>
                <mxCell id="9" value="Output" style="rounded=1;whiteSpace=wrap;html=1;" parent="1" vertex="1">
                    <mxGeometry x="690" y="1145" width="120" height="60" as="geometry"/>
                </mxCell>
                <mxCell id="16" value="MasterControl" style="rounded=1;whiteSpace=wrap;html=1;" parent="1" vertex="1">
                    <mxGeometry x="370" y="875" width="120" height="60" as="geometry"/>
                </mxCell>
                <mxCell id="20" value="" style="edgeStyle=none;html=1;" parent="1" source="19" target="16" edge="1">
                    <mxGeometry relative="1" as="geometry"/>
                </mxCell>
                <mxCell id="19" value="Eventos" style="rounded=1;whiteSpace=wrap;html=1;" parent="1" vertex="1">
                    <mxGeometry x="370" y="760" width="120" height="60" as="geometry"/>
                </mxCell>
            </root>
        </mxGraphModel>
    </diagram>
</mxfile>